<?xml version="1.0" encoding="utf-8"?>
<!-- Generator: Adobe Illustrator 21.0.2, SVG Export Plug-In . SVG Version: 6.00 Build 0)  -->
<svg version="1.1" xmlns="http://www.w3.org/2000/svg" xmlns:xlink="http://www.w3.org/1999/xlink" x="0px" y="0px"
     viewBox="0 0 236.7 49.4" style="enable-background:new 0 0 236.7 49.4;" xml:space="preserve">
<style type="text/css">
	.st0{fill:#B2BB1E;}
	.st1{stroke:#000000;stroke-width:1.7891;}
</style>
    <g id="Words">
	<g>
		<polygon points="10.9,24.6 19.1,36.4 28.2,36.4 15.8,18.4 27.3,3.8 18,3.8 10.9,12.7 10.9,3.8 3.2,3.8 3.2,4.6 3.2,36.4
			10.9,36.4 		"/>
        <polygon points="48.5,28.8 37.4,28.8 37.4,22.5 48.5,22.5 48.5,15.1 37.4,15.1 37.4,11.3 48.5,11.3 48.5,3.8 29.8,3.8 29.8,4.6
			29.8,36.4 48.5,36.4 		"/>
        <polygon points="71.4,21.9 59.6,3.8 52.6,3.8 52.6,4.6 52.6,36.4 60.2,36.4 60.2,18.3 72,36.4 79.1,36.4 79.1,3.8 71.4,3.8 		"/>
        <polygon points="90.3,18.3 102.1,36.4 109.1,36.4 109.1,3.8 101.5,3.8 101.5,21.9 89.6,3.8 82.6,3.8 82.6,4.6 82.6,36.4
			90.3,36.4 		"/>
        <polygon points="131.9,28.8 120.9,28.8 120.9,22.5 131.9,22.5 131.9,15.1 120.9,15.1 120.9,11.3 131.9,11.3 131.9,3.8 113.3,3.8
			113.3,4.6 113.3,36.4 131.9,36.4 		"/>
        <path d="M153.9,5.5c-2.4-1.2-5.8-1.8-10.4-1.8h-7.8v0.9v31.7h8c4,0,6.9-0.2,8.7-0.8c1.8-0.5,3.4-1.5,4.9-2.9
			c1.5-1.4,2.7-3.2,3.5-5.3c0.8-2.1,1.2-4.4,1.2-6.9c0-3.5-0.7-6.6-2.2-9.2C158.2,8.7,156.3,6.7,153.9,5.5z M154.2,20.4
			c0,2-0.4,3.7-1.1,5c-0.7,1.3-1.6,2.2-2.6,2.7c-1,0.5-2.8,0.8-5.4,0.8h-1.8V11.2h1.1c3.5,0,5.9,0.8,7.3,2.2
			C153.3,15,154.2,17.2,154.2,20.4z"/>
        <polygon points="173.2,13.8 168,3.8 159.7,3.8 160.4,5.1 169.4,22.4 169.4,36.4 177.1,36.4 177.1,22.3 186.7,3.8 178.4,3.8 		"/>
        <path d="M6,41c0.7,0,1.3,0.3,1.9,0.9l0.8-0.8c-0.3-0.4-0.7-0.7-1.2-0.9C7,40,6.5,39.9,6,39.9c-0.6,0-1.1,0.1-1.7,0.4
			c-0.5,0.3-0.9,0.7-1.2,1.1c-0.3,0.5-0.4,1-0.4,1.6c0,0.9,0.3,1.7,0.9,2.3C4.3,46,5,46.3,6,46.3c0.5,0,1-0.1,1.4-0.3
			c0.4-0.2,0.8-0.5,1.3-0.9l-0.8-0.8c-0.3,0.3-0.6,0.6-0.9,0.7c-0.3,0.1-0.6,0.2-0.9,0.2c-0.4,0-0.8-0.1-1.1-0.3
			c-0.3-0.2-0.6-0.4-0.7-0.7c-0.2-0.3-0.3-0.7-0.3-1.1c0-0.6,0.2-1.1,0.6-1.5C4.9,41.2,5.4,41,6,41z"/>
        <path d="M12.5,39.9c-0.6,0-1.1,0.1-1.6,0.4c-0.5,0.3-0.9,0.7-1.2,1.2c-0.3,0.5-0.4,1-0.4,1.6c0,0.9,0.3,1.6,0.9,2.3
			c0.6,0.6,1.4,0.9,2.3,0.9c0.9,0,1.6-0.3,2.2-0.9s0.9-1.4,0.9-2.3c0-0.9-0.3-1.7-0.9-2.3C14.1,40.2,13.4,39.9,12.5,39.9z
			 M13.9,44.6c-0.4,0.4-0.9,0.6-1.4,0.6c-0.5,0-0.9-0.2-1.3-0.5c-0.5-0.4-0.7-0.9-0.7-1.6c0-0.6,0.2-1.1,0.6-1.5
			c0.4-0.4,0.9-0.6,1.4-0.6c0.6,0,1,0.2,1.4,0.6c0.4,0.4,0.6,0.9,0.6,1.5C14.5,43.7,14.3,44.2,13.9,44.6z"/>
        <polygon points="21.4,40.1 20,44.3 18.6,40.1 17.5,40.1 16.4,46.2 17.5,46.2 18.2,42.3 19.5,46.2 20.5,46.2 21.8,42.3 22.5,46.2
			23.6,46.2 22.6,40.1 		"/>
        <polygon points="29.4,40.1 27.9,44.3 26.5,40.1 25.4,40.1 24.3,46.2 25.5,46.2 26.1,42.3 27.4,46.2 28.4,46.2 29.7,42.3
			30.4,46.2 31.5,46.2 30.5,40.1 		"/>
        <path d="M35.5,43.9c0,0.4,0,0.7-0.1,0.8c-0.1,0.1-0.2,0.3-0.3,0.4c-0.1,0.1-0.3,0.1-0.5,0.1c-0.2,0-0.4,0-0.5-0.1
			c-0.1-0.1-0.2-0.2-0.3-0.3c-0.1-0.1-0.1-0.4-0.1-0.7v-3.9h-1.2v3.6c0,0.7,0.1,1.2,0.2,1.5c0.1,0.3,0.4,0.6,0.7,0.8
			c0.3,0.2,0.7,0.3,1.2,0.3c0.3,0,0.6-0.1,0.9-0.2c0.3-0.1,0.5-0.3,0.7-0.5c0.2-0.2,0.3-0.5,0.4-0.7c0.1-0.2,0.1-0.7,0.1-1.3v-3.6
			h-1.2V43.9z"/>
        <polygon points="42,44.1 39.3,40.1 38.2,40.1 38.2,46.2 39.4,46.2 39.4,42.2 42,46.2 43.1,46.2 43.1,40.1 42,40.1 		"/>
        <rect x="44.6" y="40.1" width="1.2" height="6.1"/>
        <path d="M50.3,41c0.7,0,1.3,0.3,1.9,0.9l0.8-0.8c-0.3-0.4-0.7-0.7-1.2-0.9c-0.5-0.2-0.9-0.3-1.5-0.3c-0.6,0-1.1,0.1-1.7,0.4
			c-0.5,0.3-0.9,0.7-1.2,1.1c-0.3,0.5-0.4,1-0.4,1.6c0,0.9,0.3,1.7,0.9,2.3c0.6,0.6,1.4,0.9,2.3,0.9c0.5,0,1-0.1,1.4-0.3
			c0.4-0.2,0.8-0.5,1.3-0.9l-0.8-0.8c-0.3,0.3-0.6,0.6-0.9,0.7c-0.3,0.1-0.6,0.2-0.9,0.2c-0.4,0-0.8-0.1-1.1-0.3
			c-0.3-0.2-0.6-0.4-0.7-0.7c-0.2-0.3-0.3-0.7-0.3-1.1c0-0.6,0.2-1.1,0.6-1.5C49.2,41.2,49.7,41,50.3,41z"/>
        <path d="M55.9,40.1l-2.3,6.1h1.2l0.5-1.3h2.5l0.5,1.3h1.2l-2.3-6.1H55.9z M55.7,43.8l0.8-2.1l0.8,2.1H55.7z"/>
        <polygon points="59.6,41.2 60.7,41.2 60.7,46.2 61.8,46.2 61.8,41.2 62.9,41.2 62.9,40.1 59.6,40.1 		"/>
        <rect x="63.8" y="40.1" width="1.2" height="6.1"/>
        <path d="M69.4,39.9c-0.6,0-1.1,0.1-1.6,0.4c-0.5,0.3-0.9,0.7-1.2,1.2c-0.3,0.5-0.4,1-0.4,1.6c0,0.9,0.3,1.6,0.9,2.3
			c0.6,0.6,1.4,0.9,2.3,0.9c0.9,0,1.6-0.3,2.2-0.9c0.6-0.6,0.9-1.4,0.9-2.3c0-0.9-0.3-1.7-0.9-2.3C71,40.2,70.2,39.9,69.4,39.9z
			 M70.8,44.6c-0.4,0.4-0.9,0.6-1.4,0.6c-0.5,0-0.9-0.2-1.3-0.5c-0.5-0.4-0.7-0.9-0.7-1.6c0-0.6,0.2-1.1,0.6-1.5
			c0.4-0.4,0.9-0.6,1.4-0.6c0.6,0,1,0.2,1.4,0.6c0.4,0.4,0.6,0.9,0.6,1.5C71.4,43.7,71.2,44.2,70.8,44.6z"/>
        <polygon points="77.5,44.1 74.9,40.1 73.8,40.1 73.8,46.2 75,46.2 75,42.2 77.6,46.2 78.7,46.2 78.7,40.1 77.5,40.1 		"/>
        <path d="M82.9,43.2c-0.1-0.1-0.4-0.3-0.8-0.7c-0.5-0.4-0.8-0.7-0.9-0.8c-0.1-0.1-0.1-0.2-0.1-0.3c0-0.1,0-0.2,0.1-0.3
			c0.1-0.1,0.2-0.1,0.4-0.1c0.3,0,0.6,0.2,0.9,0.6l0.9-0.8c-0.3-0.4-0.6-0.6-0.9-0.8c-0.3-0.1-0.6-0.2-0.9-0.2
			c-0.5,0-0.9,0.2-1.2,0.5C80.2,40.7,80,41,80,41.5c0,0.3,0.1,0.6,0.3,0.9c0.2,0.3,0.6,0.7,1.3,1.3c0.3,0.3,0.6,0.5,0.7,0.6
			c0.1,0.1,0.2,0.3,0.2,0.4c0,0.2-0.1,0.3-0.2,0.4c-0.1,0.1-0.3,0.2-0.5,0.2c-0.4,0-0.7-0.3-1-0.8l-1,0.6c0.2,0.5,0.5,0.8,0.8,1
			c0.3,0.2,0.7,0.3,1.1,0.3c0.6,0,1-0.2,1.4-0.5c0.3-0.3,0.5-0.7,0.5-1.2c0-0.3,0-0.5-0.1-0.7C83.3,43.7,83.2,43.4,82.9,43.2z"/>
        <polygon points="89.4,41 88.4,41 88.4,42.6 86.8,42.6 86.8,43.6 88.4,43.6 88.4,45.2 89.4,45.2 89.4,43.6 91,43.6 91,42.6
			89.4,42.6 		"/>
        <path d="M97.4,41c0.7,0,1.3,0.3,1.9,0.9l0.8-0.8c-0.3-0.4-0.7-0.7-1.2-0.9c-0.5-0.2-0.9-0.3-1.5-0.3c-0.6,0-1.1,0.1-1.7,0.4
			c-0.5,0.3-0.9,0.7-1.2,1.1c-0.3,0.5-0.4,1-0.4,1.6c0,0.9,0.3,1.7,0.9,2.3c0.6,0.6,1.4,0.9,2.3,0.9c0.5,0,1-0.1,1.4-0.3
			c0.4-0.2,0.8-0.5,1.3-0.9l-0.8-0.8c-0.3,0.3-0.6,0.6-0.9,0.7c-0.3,0.1-0.6,0.2-0.9,0.2c-0.4,0-0.8-0.1-1.1-0.3
			c-0.3-0.2-0.6-0.4-0.7-0.7c-0.2-0.3-0.3-0.7-0.3-1.1c0-0.6,0.2-1.1,0.6-1.5C96.4,41.2,96.9,41,97.4,41z"/>
        <path d="M104,39.9c-0.6,0-1.1,0.1-1.6,0.4c-0.5,0.3-0.9,0.7-1.2,1.2c-0.3,0.5-0.4,1-0.4,1.6c0,0.9,0.3,1.6,0.9,2.3
			c0.6,0.6,1.4,0.9,2.3,0.9c0.9,0,1.6-0.3,2.2-0.9c0.6-0.6,0.9-1.4,0.9-2.3c0-0.9-0.3-1.7-0.9-2.3C105.6,40.2,104.8,39.9,104,39.9z
			 M105.4,44.6c-0.4,0.4-0.9,0.6-1.4,0.6c-0.5,0-0.9-0.2-1.3-0.5c-0.5-0.4-0.7-0.9-0.7-1.6c0-0.6,0.2-1.1,0.6-1.5
			c0.4-0.4,0.9-0.6,1.4-0.6c0.6,0,1,0.2,1.4,0.6c0.4,0.4,0.6,0.9,0.6,1.5C106,43.7,105.8,44.2,105.4,44.6z"/>
        <polygon points="112.1,44.1 109.5,40.1 108.4,40.1 108.4,46.2 109.6,46.2 109.6,42.2 112.2,46.2 113.3,46.2 113.3,40.1
			112.1,40.1 		"/>
        <polygon points="117,44.4 115.5,40.1 114.3,40.1 116.4,46.2 117.5,46.2 119.7,40.1 118.6,40.1 		"/>
        <polygon points="120.7,46.2 124.1,46.2 124.1,45 121.9,45 121.9,43.4 124.1,43.4 124.1,42.3 121.9,42.3 121.9,41.2 124.1,41.2
			124.1,40.1 120.7,40.1 		"/>
        <path d="M128.8,42.8c0.2-0.3,0.3-0.6,0.3-1c0-0.4-0.1-0.7-0.3-1c-0.2-0.3-0.4-0.5-0.7-0.6c-0.3-0.1-0.8-0.2-1.4-0.2h-1.2v6.1h1.2
			v-2.6h0.1l1.4,2.6h1.3l-1.4-2.7C128.4,43.3,128.6,43.1,128.8,42.8z M127,42.5h-0.4v-1.2h0.3c0.3,0,0.5,0,0.6,0.1
			c0.1,0,0.2,0.1,0.3,0.2c0.1,0.1,0.1,0.2,0.1,0.3c0,0.2-0.1,0.4-0.2,0.5C127.7,42.4,127.4,42.5,127,42.5z"/>
        <path d="M133.4,43.1v1.1h1.8c-0.2,0.4-0.4,0.6-0.7,0.8c-0.3,0.2-0.6,0.3-1,0.3c-0.6,0-1.1-0.2-1.6-0.6c-0.4-0.4-0.6-0.9-0.6-1.5
			c0-0.6,0.2-1.1,0.6-1.4c0.4-0.4,0.9-0.6,1.5-0.6c0.7,0,1.3,0.3,1.8,0.8l0.8-0.8c-0.4-0.4-0.8-0.7-1.1-0.9c-0.5-0.2-1-0.3-1.5-0.3
			c-1,0-1.8,0.4-2.5,1.1c-0.5,0.6-0.8,1.3-0.8,2.1c0,0.6,0.1,1.1,0.4,1.6c0.3,0.5,0.7,0.9,1.2,1.2c0.5,0.3,1.1,0.4,1.7,0.4
			c0.6,0,1.1-0.1,1.5-0.4c0.4-0.3,0.8-0.6,1.1-1.1c0.3-0.5,0.4-1,0.4-1.5l0-0.3H133.4z"/>
        <polygon points="137.7,46.2 141,46.2 141,45 138.8,45 138.8,43.4 141,43.4 141,42.3 138.8,42.3 138.8,41.2 141,41.2 141,40.1
			137.7,40.1 		"/>
        <polygon points="146.1,44.1 143.5,40.1 142.4,40.1 142.4,46.2 143.5,46.2 143.5,42.2 146.1,46.2 147.3,46.2 147.3,40.1
			146.1,40.1 		"/>
        <path d="M151.7,41c0.7,0,1.3,0.3,1.9,0.9l0.8-0.8c-0.3-0.4-0.7-0.7-1.2-0.9c-0.5-0.2-0.9-0.3-1.5-0.3c-0.6,0-1.1,0.1-1.7,0.4
			c-0.5,0.3-0.9,0.7-1.2,1.1c-0.3,0.5-0.4,1-0.4,1.6c0,0.9,0.3,1.7,0.9,2.3c0.6,0.6,1.4,0.9,2.3,0.9c0.5,0,1-0.1,1.4-0.3
			c0.4-0.2,0.8-0.5,1.3-0.9l-0.8-0.8c-0.3,0.3-0.6,0.6-0.9,0.7c-0.3,0.1-0.6,0.2-0.9,0.2c-0.4,0-0.8-0.1-1.1-0.3
			c-0.3-0.2-0.6-0.4-0.8-0.7c-0.2-0.3-0.3-0.7-0.3-1.1c0-0.6,0.2-1.1,0.6-1.5C150.7,41.2,151.2,41,151.7,41z"/>
        <polygon points="155.5,46.2 158.8,46.2 158.8,45 156.7,45 156.7,43.4 158.8,43.4 158.8,42.3 156.7,42.3 156.7,41.2 158.8,41.2
			158.8,40.1 155.5,40.1 		"/>
        <polygon points="163.5,40.1 162.3,40.1 162.3,46.2 165.1,46.2 165.1,45.1 163.5,45.1 		"/>
        <polygon points="165.3,41.2 166.4,41.2 166.4,46.2 167.5,46.2 167.5,41.2 168.7,41.2 168.7,40.1 165.3,40.1 		"/>
        <path d="M172.9,40.4c-0.4-0.2-1.1-0.3-2-0.3h-1.4v6.1h1.4c0.8,0,1.3,0,1.7-0.1c0.3-0.1,0.6-0.3,0.9-0.5c0.3-0.3,0.5-0.6,0.6-1
			c0.2-0.4,0.2-0.8,0.2-1.3c0-0.7-0.1-1.2-0.4-1.7C173.7,41,173.4,40.6,172.9,40.4z M173,44.2c-0.2,0.3-0.3,0.5-0.6,0.6
			c-0.2,0.1-0.6,0.2-1.2,0.2h-0.5v-3.8h0.4c0.7,0,1.2,0.2,1.6,0.5c0.4,0.4,0.5,0.9,0.5,1.5C173.2,43.6,173.2,43.9,173,44.2z"/>
        <path d="M176,45c-0.2,0-0.3,0.1-0.5,0.2c-0.1,0.1-0.2,0.3-0.2,0.5c0,0.2,0.1,0.3,0.2,0.5c0.1,0.1,0.3,0.2,0.5,0.2s0.3-0.1,0.5-0.2
			c0.1-0.1,0.2-0.3,0.2-0.5c0-0.2-0.1-0.3-0.2-0.5C176.3,45,176.2,45,176,45z"/>
	</g>
</g>
    <g id="Logo">
	<g>
		<polygon class="st0" points="232.3,3.8 194.4,3.8 194.4,33.3 194.4,33.9 194.4,35.1 204.5,35.1 205.6,46.2 213.5,35.1 233.6,35.1
			233.6,3.8 		"/>
        <polygon class="st0" points="197.7,6.7 197.7,12.8 197.7,20.1 197.7,32.2 207,32.2 207.8,38.3 211.4,32.2 230.4,32.2 230.4,27.2
			230.4,20.2 230.4,6.7 		"/>
        <g>
			<path class="st0" d="M220.9,14.6l-1.9,1.8c-1.3-1.4-2.7-2-4.4-2c-1.4,0-2.5,0.5-3.4,1.4c-0.9,0.9-1.4,2.1-1.4,3.4
				c0,1,0.2,1.8,0.6,2.5c0.4,0.7,1,1.3,1.8,1.7c0.8,0.4,1.6,0.6,2.5,0.6c0.8,0,1.5-0.1,2.2-0.4c0.7-0.3,1.4-0.8,2.1-1.6l1.8,1.9
				c-1.1,1-2,1.7-3,2.1c-0.9,0.4-2,0.6-3.2,0.6c-2.2,0-4-0.7-5.4-2.1c-1.4-1.4-2.1-3.2-2.1-5.4c0-1.4,0.3-2.7,1-3.8
				c0.6-1.1,1.6-2,2.8-2.7c1.2-0.7,2.5-1,3.9-1c1.2,0,2.3,0.2,3.4,0.7C219.1,13,220.1,13.7,220.9,14.6z"/>
		</g>
	</g>
        <g>
		<polygon points="232.3,3.8 194.4,3.8 194.4,33.3 194.4,33.9 194.4,35.1 204.5,35.1 205.6,46.2 213.5,35.1 233.6,35.1 233.6,3.8
			"/>
            <polygon class="st0" points="197.7,6.7 197.7,12.8 197.7,20.1 197.7,32.2 207,32.2 207.8,38.3 211.4,32.2 230.4,32.2 230.4,27.2
			230.4,20.2 230.4,6.7 		"/>
            <g>
			<path class="st1" d="M220.9,14.6l-1.9,1.8c-1.3-1.4-2.7-2-4.4-2c-1.4,0-2.5,0.5-3.4,1.4c-0.9,0.9-1.4,2.1-1.4,3.4
				c0,1,0.2,1.8,0.6,2.5c0.4,0.7,1,1.3,1.8,1.7c0.8,0.4,1.6,0.6,2.5,0.6c0.8,0,1.5-0.1,2.2-0.4c0.7-0.3,1.4-0.8,2.1-1.6l1.8,1.9
				c-1.1,1-2,1.7-3,2.1c-0.9,0.4-2,0.6-3.2,0.6c-2.2,0-4-0.7-5.4-2.1c-1.4-1.4-2.1-3.2-2.1-5.4c0-1.4,0.3-2.7,1-3.8
				c0.6-1.1,1.6-2,2.8-2.7c1.2-0.7,2.5-1,3.9-1c1.2,0,2.3,0.2,3.4,0.7C219.1,13,220.1,13.7,220.9,14.6z"/>
		</g>
	</g>
</g>
</svg>
